<?xml version="1.0" encoding="UTF-8" standalone="no"?>
<!DOCTYPE svg PUBLIC "-//W3C//DTD SVG 1.1//EN"
 "http://www.w3.org/Graphics/SVG/1.1/DTD/svg11.dtd">
<!-- Generated by graphviz version 2.36.0 (20140111.2315)
 -->
<!-- Title: G Pages: 1 -->
<svg width="704pt" height="812pt"
 viewBox="0.00 0.00 704.00 812.00" xmlns="http://www.w3.org/2000/svg" xmlns:xlink="http://www.w3.org/1999/xlink">
<g id="graph0" class="graph" transform="scale(1 1) rotate(0) translate(4 808)">
<title>G</title>
<polygon fill="white" stroke="none" points="-4,4 -4,-808 700,-808 700,4 -4,4"/>
<g id="clust1" class="cluster"><title>cluster_Global</title>
<path fill="none" stroke="gray" d="M20,-98C20,-98 676,-98 676,-98 682,-98 688,-104 688,-110 688,-110 688,-784 688,-784 688,-790 682,-796 676,-796 676,-796 20,-796 20,-796 14,-796 8,-790 8,-784 8,-784 8,-110 8,-110 8,-104 14,-98 20,-98"/>
<text text-anchor="middle" x="348" y="-783.2" font-family="Times,serif" font-size="11.00" fill="gray">Global</text>
</g>
<g id="clust2" class="cluster"><title>cluster_\EventsForce</title>
<path fill="none" stroke="gray" d="M28,-106C28,-106 668,-106 668,-106 674,-106 680,-112 680,-118 680,-118 680,-757 680,-757 680,-763 674,-769 668,-769 668,-769 28,-769 28,-769 22,-769 16,-763 16,-757 16,-757 16,-118 16,-118 16,-112 22,-106 28,-106"/>
<text text-anchor="middle" x="348" y="-756.2" font-family="Times,serif" font-size="11.00" fill="gray">EventsForce</text>
</g>
<g id="clust3" class="cluster"><title>cluster_\EventsForce\Resources</title>
<path fill="none" stroke="gray" d="M36,-455C36,-455 611,-455 611,-455 617,-455 623,-461 623,-467 623,-467 623,-730 623,-730 623,-736 617,-742 611,-742 611,-742 36,-742 36,-742 30,-742 24,-736 24,-730 24,-730 24,-467 24,-467 24,-461 30,-455 36,-455"/>
<text text-anchor="middle" x="323.5" y="-729.2" font-family="Times,serif" font-size="11.00" fill="gray">Resources</text>
</g>
<g id="clust4" class="cluster"><title>cluster_\EventsForce\Exceptions</title>
<path fill="none" stroke="gray" d="M494,-214C494,-214 660,-214 660,-214 666,-214 672,-220 672,-226 672,-226 672,-435 672,-435 672,-441 666,-447 660,-447 660,-447 494,-447 494,-447 488,-447 482,-441 482,-435 482,-435 482,-226 482,-226 482,-220 488,-214 494,-214"/>
<text text-anchor="middle" x="577" y="-434.2" font-family="Times,serif" font-size="11.00" fill="gray">Exceptions</text>
</g>
<!-- \\EventsForce\\Resources\\BaseResource -->
<g id="node1" class="node"><title>\\EventsForce\\Resources\\BaseResource</title>
<polygon fill="none" stroke="black" points="127.713,-607 32.2869,-607 32.2869,-571 127.713,-571 127.713,-607"/>
<text text-anchor="start" x="46.9946" y="-591.2" font-family="Courier,monospace" font-size="11.00">«abstract»</text>
<text text-anchor="start" x="40.3936" y="-580.2" font-family="Courier,monospace" font-size="11.00">BaseResource</text>
</g>
<!-- \\EventsForce\\Resources\\Attendees -->
<g id="node2" class="node"><title>\\EventsForce\\Resources\\Attendees</title>
<polygon fill="none" stroke="black" points="614.911,-634 539.089,-634 539.089,-598 614.911,-598 614.911,-634"/>
<text text-anchor="middle" x="577" y="-612.7" font-family="Courier,monospace" font-size="11.00">Attendees</text>
</g>
<!-- \\EventsForce\\Resources\\EventBasedResource -->
<g id="node4" class="node"><title>\\EventsForce\\Resources\\EventBasedResource</title>
<polygon fill="none" stroke="black" points="376.319,-607 241.681,-607 241.681,-571 376.319,-571 376.319,-607"/>
<text text-anchor="start" x="275.995" y="-591.2" font-family="Courier,monospace" font-size="11.00">«abstract»</text>
<text text-anchor="start" x="249.59" y="-580.2" font-family="Courier,monospace" font-size="11.00">EventBasedResource</text>
</g>
<!-- \\EventsForce\\Resources\\Attendees&#45;&gt;\\EventsForce\\Resources\\EventBasedResource -->
<g id="edge1" class="edge"><title>\\EventsForce\\Resources\\Attendees&#45;&gt;\\EventsForce\\Resources\\EventBasedResource</title>
<path fill="none" stroke="black" d="M539.293,-612.274C500.093,-608.295 436.837,-601.874 386.685,-596.784"/>
<polygon fill="none" stroke="black" points="386.821,-593.28 376.519,-595.752 386.114,-600.244 386.821,-593.28"/>
</g>
<!-- \\EventsForce\\Resources\\Events -->
<g id="node3" class="node"><title>\\EventsForce\\Resources\\Events</title>
<polygon fill="none" stroke="black" points="336.608,-715 281.392,-715 281.392,-679 336.608,-679 336.608,-715"/>
<text text-anchor="middle" x="309" y="-693.7" font-family="Courier,monospace" font-size="11.00">Events</text>
</g>
<!-- \\EventsForce\\Resources\\Events&#45;&gt;\\EventsForce\\Resources\\BaseResource -->
<g id="edge5" class="edge"><title>\\EventsForce\\Resources\\Events&#45;&gt;\\EventsForce\\Resources\\BaseResource</title>
<path fill="none" stroke="black" d="M281.392,-693.044C258.987,-689.088 226.456,-681.856 200,-670 167.095,-655.254 133.481,-631.4 110.409,-613.389"/>
<polygon fill="none" stroke="black" points="112.417,-610.515 102.407,-607.046 108.069,-616.001 112.417,-610.515"/>
</g>
<!-- \\EventsForce\\Resources\\EventBasedResource&#45;&gt;\\EventsForce\\Resources\\BaseResource -->
<g id="edge7" class="edge"><title>\\EventsForce\\Resources\\EventBasedResource&#45;&gt;\\EventsForce\\Resources\\BaseResource</title>
<path fill="none" stroke="black" d="M241.426,-589C208.634,-589 169.498,-589 138.09,-589"/>
<polygon fill="none" stroke="black" points="137.756,-585.5 127.756,-589 137.756,-592.5 137.756,-585.5"/>
</g>
<!-- \\EventsForce\\Resources\\InvoiceBasedResource -->
<g id="node5" class="node"><title>\\EventsForce\\Resources\\InvoiceBasedResource</title>
<polygon fill="none" stroke="black" points="383.021,-499 234.979,-499 234.979,-463 383.021,-463 383.021,-499"/>
<text text-anchor="start" x="275.995" y="-483.2" font-family="Courier,monospace" font-size="11.00">«abstract»</text>
<text text-anchor="start" x="242.989" y="-472.2" font-family="Courier,monospace" font-size="11.00">InvoiceBasedResource</text>
</g>
<!-- \\EventsForce\\Resources\\InvoiceBasedResource&#45;&gt;\\EventsForce\\Resources\\BaseResource -->
<g id="edge8" class="edge"><title>\\EventsForce\\Resources\\InvoiceBasedResource&#45;&gt;\\EventsForce\\Resources\\BaseResource</title>
<path fill="none" stroke="black" d="M234.775,-495.573C222.908,-498.989 210.935,-503.1 200,-508 167.095,-522.746 133.481,-546.6 110.409,-564.611"/>
<polygon fill="none" stroke="black" points="108.069,-561.999 102.407,-570.954 112.417,-567.485 108.069,-561.999"/>
</g>
<!-- \\EventsForce\\Resources\\Invoices -->
<g id="node6" class="node"><title>\\EventsForce\\Resources\\Invoices</title>
<polygon fill="none" stroke="black" points="343.309,-661 274.691,-661 274.691,-625 343.309,-625 343.309,-661"/>
<text text-anchor="middle" x="309" y="-639.7" font-family="Courier,monospace" font-size="11.00">Invoices</text>
</g>
<!-- \\EventsForce\\Resources\\Invoices&#45;&gt;\\EventsForce\\Resources\\BaseResource -->
<g id="edge9" class="edge"><title>\\EventsForce\\Resources\\Invoices&#45;&gt;\\EventsForce\\Resources\\BaseResource</title>
<path fill="none" stroke="black" d="M274.505,-635.032C238.464,-626.459 180.525,-612.676 137.427,-602.423"/>
<polygon fill="none" stroke="black" points="138.182,-599.005 127.643,-600.096 136.562,-605.815 138.182,-599.005"/>
</g>
<!-- \\EventsForce\\Resources\\Payments -->
<g id="node7" class="node"><title>\\EventsForce\\Resources\\Payments</title>
<polygon fill="none" stroke="black" points="611.309,-499 542.691,-499 542.691,-463 611.309,-463 611.309,-499"/>
<text text-anchor="middle" x="577" y="-477.7" font-family="Courier,monospace" font-size="11.00">Payments</text>
</g>
<!-- \\EventsForce\\Resources\\Payments&#45;&gt;\\EventsForce\\Resources\\InvoiceBasedResource -->
<g id="edge10" class="edge"><title>\\EventsForce\\Resources\\Payments&#45;&gt;\\EventsForce\\Resources\\InvoiceBasedResource</title>
<path fill="none" stroke="black" d="M542.58,-481C505.376,-481 443.846,-481 393.417,-481"/>
<polygon fill="none" stroke="black" points="393.163,-477.5 383.163,-481 393.163,-484.5 393.163,-477.5"/>
</g>
<!-- \\EventsForce\\Resources\\People -->
<g id="node8" class="node"><title>\\EventsForce\\Resources\\People</title>
<polygon fill="none" stroke="black" points="336.608,-553 281.392,-553 281.392,-517 336.608,-517 336.608,-553"/>
<text text-anchor="middle" x="309" y="-531.7" font-family="Courier,monospace" font-size="11.00">People</text>
</g>
<!-- \\EventsForce\\Resources\\People&#45;&gt;\\EventsForce\\Resources\\BaseResource -->
<g id="edge11" class="edge"><title>\\EventsForce\\Resources\\People&#45;&gt;\\EventsForce\\Resources\\BaseResource</title>
<path fill="none" stroke="black" d="M281.069,-541.407C245.947,-549.761 183.597,-564.594 137.809,-575.486"/>
<polygon fill="none" stroke="black" points="136.934,-572.096 128.015,-577.816 138.554,-578.906 136.934,-572.096"/>
</g>
<!-- \\EventsForce\\Resources\\Sessions -->
<g id="node9" class="node"><title>\\EventsForce\\Resources\\Sessions</title>
<polygon fill="none" stroke="black" points="611.309,-580 542.691,-580 542.691,-544 611.309,-544 611.309,-580"/>
<text text-anchor="middle" x="577" y="-558.7" font-family="Courier,monospace" font-size="11.00">Sessions</text>
</g>
<!-- \\EventsForce\\Resources\\Sessions&#45;&gt;\\EventsForce\\Resources\\EventBasedResource -->
<g id="edge12" class="edge"><title>\\EventsForce\\Resources\\Sessions&#45;&gt;\\EventsForce\\Resources\\EventBasedResource</title>
<path fill="none" stroke="black" d="M542.58,-565.392C503.663,-569.342 438.129,-575.994 386.525,-581.232"/>
<polygon fill="none" stroke="black" points="385.998,-577.768 376.402,-582.26 386.705,-584.732 385.998,-577.768"/>
</g>
<!-- \\EventsForce\\Exceptions\\EmptyResponseException -->
<g id="node10" class="node"><title>\\EventsForce\\Exceptions\\EmptyResponseException</title>
<polygon fill="none" stroke="black" points="657.724,-366 496.276,-366 496.276,-330 657.724,-330 657.724,-366"/>
<text text-anchor="middle" x="577" y="-344.7" font-family="Courier,monospace" font-size="11.00">EmptyResponseException</text>
</g>
<!-- \\Exception -->
<g id="node16" class="node"><title>\\Exception</title>
<ellipse fill="none" stroke="black" cx="309" cy="-72" rx="40.6162" ry="18"/>
<text text-anchor="middle" x="309" y="-67.8" font-family="Times,serif" font-size="14.00" fill="gray">xception</text>
</g>
<!-- \\EventsForce\\Exceptions\\EmptyResponseException&#45;&gt;\\Exception -->
<g id="edge2" class="edge"><title>\\EventsForce\\Exceptions\\EmptyResponseException&#45;&gt;\\Exception</title>
<path fill="none" stroke="black" d="M497.111,-329.901C491.79,-327.318 486.688,-324.368 482,-321 399.795,-261.94 343.906,-150.751 321.282,-99.3428"/>
<polygon fill="none" stroke="black" points="324.379,-97.6857 317.202,-89.8913 317.952,-100.46 324.379,-97.6857"/>
</g>
<!-- \\EventsForce\\Exceptions\\InvalidArgumentException -->
<g id="node11" class="node"><title>\\EventsForce\\Exceptions\\InvalidArgumentException</title>
<polygon fill="none" stroke="black" points="664.426,-258 489.574,-258 489.574,-222 664.426,-222 664.426,-258"/>
<text text-anchor="middle" x="577" y="-236.7" font-family="Courier,monospace" font-size="11.00">InvalidArgumentException</text>
</g>
<!-- \\InvalidArgumentException -->
<g id="node17" class="node"><title>\\InvalidArgumentException</title>
<ellipse fill="none" stroke="black" cx="309" cy="-18" rx="109.337" ry="18"/>
<text text-anchor="middle" x="309" y="-13.8" font-family="Times,serif" font-size="14.00" fill="gray">\InvalidArgumentException</text>
</g>
<!-- \\EventsForce\\Exceptions\\InvalidArgumentException&#45;&gt;\\InvalidArgumentException -->
<g id="edge3" class="edge"><title>\\EventsForce\\Exceptions\\InvalidArgumentException&#45;&gt;\\InvalidArgumentException</title>
<path fill="none" stroke="black" d="M489.615,-223.764C486.938,-222.023 484.387,-220.107 482,-218 420.538,-163.746 479.051,-99.7152 418,-45 413.183,-40.6829 407.779,-37.033 402.025,-33.9499"/>
<polygon fill="none" stroke="black" points="403.265,-30.6646 392.728,-29.5568 400.274,-36.9936 403.265,-30.6646"/>
</g>
<!-- \\EventsForce\\Exceptions\\EventsForceException -->
<g id="node12" class="node"><title>\\EventsForce\\Exceptions\\EventsForceException</title>
<polygon fill="none" stroke="black" points="651.021,-312 502.979,-312 502.979,-276 651.021,-276 651.021,-312"/>
<text text-anchor="middle" x="577" y="-290.7" font-family="Courier,monospace" font-size="11.00">EventsForceException</text>
</g>
<!-- \\EventsForce\\Exceptions\\EventsForceException&#45;&gt;\\Exception -->
<g id="edge4" class="edge"><title>\\EventsForce\\Exceptions\\EventsForceException&#45;&gt;\\Exception</title>
<path fill="none" stroke="black" d="M502.854,-277.532C495.55,-274.566 488.458,-271.083 482,-267 411.263,-222.272 352.773,-140.056 325.891,-98.109"/>
<polygon fill="none" stroke="black" points="328.789,-96.144 320.492,-89.5565 322.87,-99.8808 328.789,-96.144"/>
</g>
<!-- \\EventsForce\\Exceptions\\ResourceNotFound -->
<g id="node13" class="node"><title>\\EventsForce\\Exceptions\\ResourceNotFound</title>
<polygon fill="none" stroke="black" points="637.618,-420 516.382,-420 516.382,-384 637.618,-384 637.618,-420"/>
<text text-anchor="middle" x="577" y="-398.7" font-family="Courier,monospace" font-size="11.00">ResourceNotFound</text>
</g>
<!-- \\EventsForce\\Exceptions\\ResourceNotFound&#45;&gt;\\Exception -->
<g id="edge6" class="edge"><title>\\EventsForce\\Exceptions\\ResourceNotFound&#45;&gt;\\Exception</title>
<path fill="none" stroke="black" d="M515.99,-392.251C503.89,-388.31 491.871,-382.774 482,-375 387.634,-300.682 336.174,-159.345 317.836,-99.6786"/>
<polygon fill="none" stroke="black" points="321.113,-98.4206 314.889,-89.8466 314.408,-100.431 321.113,-98.4206"/>
</g>
<!-- \\EventsForce\\Request -->
<g id="node14" class="node"><title>\\EventsForce\\Request</title>
<polygon fill="none" stroke="black" points="608.208,-204 545.792,-204 545.792,-168 608.208,-168 608.208,-204"/>
<text text-anchor="middle" x="577" y="-182.7" font-family="Courier,monospace" font-size="11.00">Request</text>
</g>
<!-- \\EventsForce\\Client -->
<g id="node15" class="node"><title>\\EventsForce\\Client</title>
<polygon fill="none" stroke="black" points="604.608,-150 549.392,-150 549.392,-114 604.608,-114 604.608,-150"/>
<text text-anchor="middle" x="577" y="-128.7" font-family="Courier,monospace" font-size="11.00">Client</text>
</g>
</g>
</svg>
