<?xml version="1.0" encoding="UTF-8" standalone="no"?>
<!DOCTYPE svg PUBLIC "-//W3C//DTD SVG 1.1//EN"
 "http://www.w3.org/Graphics/SVG/1.1/DTD/svg11.dtd">
<!-- Generated by graphviz version 2.36.0 (20140111.2315)
 -->
<!-- Title: G Pages: 1 -->
<svg width="504pt" height="542pt"
 viewBox="0.00 0.00 504.00 542.00" xmlns="http://www.w3.org/2000/svg" xmlns:xlink="http://www.w3.org/1999/xlink">
<g id="graph0" class="graph" transform="scale(1 1) rotate(0) translate(4 538)">
<title>G</title>
<polygon fill="white" stroke="none" points="-4,4 -4,-538 500,-538 500,4 -4,4"/>
<g id="clust1" class="cluster"><title>cluster_Global</title>
<path fill="none" stroke="gray" d="M56,-98C56,-98 476,-98 476,-98 482,-98 488,-104 488,-110 488,-110 488,-514 488,-514 488,-520 482,-526 476,-526 476,-526 56,-526 56,-526 50,-526 44,-520 44,-514 44,-514 44,-110 44,-110 44,-104 50,-98 56,-98"/>
<text text-anchor="middle" x="266" y="-513.2" font-family="Times,serif" font-size="11.00" fill="gray">Global</text>
</g>
<g id="clust2" class="cluster"><title>cluster_\EventsForce</title>
<path fill="none" stroke="gray" d="M64,-106C64,-106 468,-106 468,-106 474,-106 480,-112 480,-118 480,-118 480,-487 480,-487 480,-493 474,-499 468,-499 468,-499 64,-499 64,-499 58,-499 52,-493 52,-487 52,-487 52,-118 52,-118 52,-112 58,-106 64,-106"/>
<text text-anchor="middle" x="266" y="-486.2" font-family="Times,serif" font-size="11.00" fill="gray">EventsForce</text>
</g>
<g id="clust3" class="cluster"><title>cluster_\EventsForce\Resources</title>
<path fill="none" stroke="gray" d="M72,-401C72,-401 401,-401 401,-401 407,-401 413,-407 413,-413 413,-413 413,-460 413,-460 413,-466 407,-472 401,-472 401,-472 72,-472 72,-472 66,-472 60,-466 60,-460 60,-460 60,-413 60,-413 60,-407 66,-401 72,-401"/>
<text text-anchor="middle" x="236.5" y="-459.2" font-family="Times,serif" font-size="11.00" fill="gray">Resources</text>
</g>
<g id="clust4" class="cluster"><title>cluster_\EventsForce\Exceptions</title>
<path fill="none" stroke="gray" d="M294,-214C294,-214 460,-214 460,-214 466,-214 472,-220 472,-226 472,-226 472,-381 472,-381 472,-387 466,-393 460,-393 460,-393 294,-393 294,-393 288,-393 282,-387 282,-381 282,-381 282,-226 282,-226 282,-220 288,-214 294,-214"/>
<text text-anchor="middle" x="377" y="-380.2" font-family="Times,serif" font-size="11.00" fill="gray">Exceptions</text>
</g>
<!-- \\EventsForce\\Resources\\Base -->
<g id="node1" class="node"><title>\\EventsForce\\Resources\\Base</title>
<polygon fill="none" stroke="black" points="150.011,-445 67.9893,-445 67.9893,-409 150.011,-409 150.011,-445"/>
<text text-anchor="start" x="75.9946" y="-429.2" font-family="Courier,monospace" font-size="11.00">«abstract»</text>
<text text-anchor="start" x="95.7979" y="-418.2" font-family="Courier,monospace" font-size="11.00">Base</text>
</g>
<!-- \\EventsForce\\Resources\\Events -->
<g id="node2" class="node"><title>\\EventsForce\\Resources\\Events</title>
<polygon fill="none" stroke="black" points="404.608,-445 349.392,-445 349.392,-409 404.608,-409 404.608,-445"/>
<text text-anchor="middle" x="377" y="-423.7" font-family="Courier,monospace" font-size="11.00">Events</text>
</g>
<!-- \\EventsForce\\Resources\\Events&#45;&gt;\\EventsForce\\Resources\\Base -->
<g id="edge3" class="edge"><title>\\EventsForce\\Resources\\Events&#45;&gt;\\EventsForce\\Resources\\Base</title>
<path fill="none" stroke="black" d="M349.031,-427C304.89,-427 216.532,-427 160.487,-427"/>
<polygon fill="none" stroke="black" points="160.417,-423.5 150.417,-427 160.417,-430.5 160.417,-423.5"/>
</g>
<!-- \\EventsForce\\Exceptions\\InvalidArgumentException -->
<g id="node3" class="node"><title>\\EventsForce\\Exceptions\\InvalidArgumentException</title>
<polygon fill="none" stroke="black" points="464.426,-366 289.574,-366 289.574,-330 464.426,-330 464.426,-366"/>
<text text-anchor="middle" x="377" y="-344.7" font-family="Courier,monospace" font-size="11.00">InvalidArgumentException</text>
</g>
<!-- \\InvalidArgumentException -->
<g id="node8" class="node"><title>\\InvalidArgumentException</title>
<ellipse fill="none" stroke="black" cx="109" cy="-72" rx="109.337" ry="18"/>
<text text-anchor="middle" x="109" y="-67.8" font-family="Times,serif" font-size="14.00" fill="gray">\InvalidArgumentException</text>
</g>
<!-- \\EventsForce\\Exceptions\\InvalidArgumentException&#45;&gt;\\InvalidArgumentException -->
<g id="edge1" class="edge"><title>\\EventsForce\\Exceptions\\InvalidArgumentException&#45;&gt;\\InvalidArgumentException</title>
<path fill="none" stroke="black" d="M297.111,-329.901C291.79,-327.318 286.688,-324.368 282,-321 199.995,-262.084 144.178,-151.292 121.447,-99.7191"/>
<polygon fill="none" stroke="black" points="124.525,-98.0174 117.344,-90.227 118.1,-100.795 124.525,-98.0174"/>
</g>
<!-- \\EventsForce\\Exceptions\\EventsForceException -->
<g id="node4" class="node"><title>\\EventsForce\\Exceptions\\EventsForceException</title>
<polygon fill="none" stroke="black" points="451.021,-312 302.979,-312 302.979,-276 451.021,-276 451.021,-312"/>
<text text-anchor="middle" x="377" y="-290.7" font-family="Courier,monospace" font-size="11.00">EventsForceException</text>
</g>
<!-- \\Exception -->
<g id="node9" class="node"><title>\\Exception</title>
<ellipse fill="none" stroke="black" cx="109" cy="-18" rx="40.6162" ry="18"/>
<text text-anchor="middle" x="109" y="-13.8" font-family="Times,serif" font-size="14.00" fill="gray">xception</text>
</g>
<!-- \\EventsForce\\Exceptions\\EventsForceException&#45;&gt;\\Exception -->
<g id="edge2" class="edge"><title>\\EventsForce\\Exceptions\\EventsForceException&#45;&gt;\\Exception</title>
<path fill="none" stroke="black" d="M302.558,-281.123C294.962,-277.499 287.886,-272.88 282,-267 209.355,-194.426 291.894,-116.302 218,-45 202.533,-30.0753 180.122,-23.0223 159.72,-19.8183"/>
<polygon fill="none" stroke="black" points="159.962,-16.3204 149.595,-18.5046 159.061,-23.2623 159.962,-16.3204"/>
</g>
<!-- \\EventsForce\\Exceptions\\EmptyResponseException -->
<g id="node5" class="node"><title>\\EventsForce\\Exceptions\\EmptyResponseException</title>
<polygon fill="none" stroke="black" points="457.724,-258 296.276,-258 296.276,-222 457.724,-222 457.724,-258"/>
<text text-anchor="middle" x="377" y="-236.7" font-family="Courier,monospace" font-size="11.00">EmptyResponseException</text>
</g>
<!-- \\EventsForce\\Exceptions\\EmptyResponseException&#45;&gt;\\Exception -->
<g id="edge4" class="edge"><title>\\EventsForce\\Exceptions\\EmptyResponseException&#45;&gt;\\Exception</title>
<path fill="none" stroke="black" d="M296.172,-227.569C291.068,-224.929 286.272,-221.771 282,-218 220.538,-163.746 279.051,-99.7152 218,-45 202.117,-30.7652 179.858,-23.7857 159.672,-20.4514"/>
<polygon fill="none" stroke="black" points="160.046,-16.9698 149.659,-19.0562 159.08,-23.9029 160.046,-16.9698"/>
</g>
<!-- \\EventsForce\\Request -->
<g id="node6" class="node"><title>\\EventsForce\\Request</title>
<polygon fill="none" stroke="black" points="408.208,-204 345.792,-204 345.792,-168 408.208,-168 408.208,-204"/>
<text text-anchor="middle" x="377" y="-182.7" font-family="Courier,monospace" font-size="11.00">Request</text>
</g>
<!-- \\EventsForce\\Client -->
<g id="node7" class="node"><title>\\EventsForce\\Client</title>
<polygon fill="none" stroke="black" points="404.608,-150 349.392,-150 349.392,-114 404.608,-114 404.608,-150"/>
<text text-anchor="middle" x="377" y="-128.7" font-family="Courier,monospace" font-size="11.00">Client</text>
</g>
</g>
</svg>
