<?xml version="1.0" encoding="UTF-8" standalone="no"?>
<!DOCTYPE svg PUBLIC "-//W3C//DTD SVG 1.1//EN"
 "http://www.w3.org/Graphics/SVG/1.1/DTD/svg11.dtd">
<!-- Generated by graphviz version 2.36.0 (20140111.2315)
 -->
<!-- Title: G Pages: 1 -->
<svg width="504pt" height="211pt"
 viewBox="0.00 0.00 504.00 211.00" xmlns="http://www.w3.org/2000/svg" xmlns:xlink="http://www.w3.org/1999/xlink">
<g id="graph0" class="graph" transform="scale(1 1) rotate(0) translate(4 207)">
<title>G</title>
<polygon fill="white" stroke="none" points="-4,4 -4,-207 500,-207 500,4 -4,4"/>
<g id="clust1" class="cluster"><title>cluster_Global</title>
<path fill="none" stroke="gray" d="M278,-8C278,-8 476,-8 476,-8 482,-8 488,-14 488,-20 488,-20 488,-183 488,-183 488,-189 482,-195 476,-195 476,-195 278,-195 278,-195 272,-195 266,-189 266,-183 266,-183 266,-20 266,-20 266,-14 272,-8 278,-8"/>
<text text-anchor="middle" x="377" y="-182.2" font-family="Times,serif" font-size="11.00" fill="gray">Global</text>
</g>
<g id="clust2" class="cluster"><title>cluster_\EventsForce</title>
<path fill="none" stroke="gray" d="M286,-16C286,-16 468,-16 468,-16 474,-16 480,-22 480,-28 480,-28 480,-156 480,-156 480,-162 474,-168 468,-168 468,-168 286,-168 286,-168 280,-168 274,-162 274,-156 274,-156 274,-28 274,-28 274,-22 280,-16 286,-16"/>
<text text-anchor="middle" x="377" y="-155.2" font-family="Times,serif" font-size="11.00" fill="gray">EventsForce</text>
</g>
<g id="clust3" class="cluster"><title>cluster_\EventsForce\Exceptions</title>
<path fill="none" stroke="gray" d="M294,-70C294,-70 460,-70 460,-70 466,-70 472,-76 472,-82 472,-82 472,-129 472,-129 472,-135 466,-141 460,-141 460,-141 294,-141 294,-141 288,-141 282,-135 282,-129 282,-129 282,-82 282,-82 282,-76 288,-70 294,-70"/>
<text text-anchor="middle" x="377" y="-128.2" font-family="Times,serif" font-size="11.00" fill="gray">Exceptions</text>
</g>
<!-- \\EventsForce\\Exceptions\\InvalidArgumentException -->
<g id="node1" class="node"><title>\\EventsForce\\Exceptions\\InvalidArgumentException</title>
<polygon fill="none" stroke="black" points="464.426,-114 289.574,-114 289.574,-78 464.426,-78 464.426,-114"/>
<text text-anchor="middle" x="377" y="-92.7" font-family="Courier,monospace" font-size="11.00">InvalidArgumentException</text>
</g>
<!-- \\InvalidArgumentException -->
<g id="node3" class="node"><title>\\InvalidArgumentException</title>
<ellipse fill="none" stroke="black" cx="109" cy="-96" rx="109.337" ry="18"/>
<text text-anchor="middle" x="109" y="-91.8" font-family="Times,serif" font-size="14.00" fill="gray">\InvalidArgumentException</text>
</g>
<!-- \\EventsForce\\Exceptions\\InvalidArgumentException&#45;&gt;\\InvalidArgumentException -->
<g id="edge1" class="edge"><title>\\EventsForce\\Exceptions\\InvalidArgumentException&#45;&gt;\\InvalidArgumentException</title>
<path fill="none" stroke="black" d="M289.637,-96C270.082,-96 248.987,-96 228.367,-96"/>
<polygon fill="none" stroke="black" points="228.291,-92.5001 218.291,-96 228.291,-99.5001 228.291,-92.5001"/>
</g>
<!-- \\EventsForce\\Client -->
<g id="node2" class="node"><title>\\EventsForce\\Client</title>
<polygon fill="none" stroke="black" points="404.608,-60 349.392,-60 349.392,-24 404.608,-24 404.608,-60"/>
<text text-anchor="middle" x="377" y="-38.7" font-family="Courier,monospace" font-size="11.00">Client</text>
</g>
</g>
</svg>
