<?xml version="1.0" encoding="UTF-8" standalone="no"?>
<!DOCTYPE svg PUBLIC "-//W3C//DTD SVG 1.1//EN"
 "http://www.w3.org/Graphics/SVG/1.1/DTD/svg11.dtd">
<!-- Generated by graphviz version 2.36.0 (20140111.2315)
 -->
<!-- Title: G Pages: 1 -->
<svg width="504pt" height="596pt"
 viewBox="0.00 0.00 504.00 596.00" xmlns="http://www.w3.org/2000/svg" xmlns:xlink="http://www.w3.org/1999/xlink">
<g id="graph0" class="graph" transform="scale(1 1) rotate(0) translate(4 592)">
<title>G</title>
<polygon fill="white" stroke="none" points="-4,4 -4,-592 500,-592 500,4 -4,4"/>
<g id="clust1" class="cluster"><title>cluster_Global</title>
<path fill="none" stroke="gray" d="M49,-98C49,-98 476,-98 476,-98 482,-98 488,-104 488,-110 488,-110 488,-568 488,-568 488,-574 482,-580 476,-580 476,-580 49,-580 49,-580 43,-580 37,-574 37,-568 37,-568 37,-110 37,-110 37,-104 43,-98 49,-98"/>
<text text-anchor="middle" x="262.5" y="-567.2" font-family="Times,serif" font-size="11.00" fill="gray">Global</text>
</g>
<g id="clust2" class="cluster"><title>cluster_\EventsForce</title>
<path fill="none" stroke="gray" d="M57,-106C57,-106 468,-106 468,-106 474,-106 480,-112 480,-118 480,-118 480,-541 480,-541 480,-547 474,-553 468,-553 468,-553 57,-553 57,-553 51,-553 45,-547 45,-541 45,-541 45,-118 45,-118 45,-112 51,-106 57,-106"/>
<text text-anchor="middle" x="262.5" y="-540.2" font-family="Times,serif" font-size="11.00" fill="gray">EventsForce</text>
</g>
<g id="clust3" class="cluster"><title>cluster_\EventsForce\Resources</title>
<path fill="none" stroke="gray" d="M65,-401C65,-401 411,-401 411,-401 417,-401 423,-407 423,-413 423,-413 423,-514 423,-514 423,-520 417,-526 411,-526 411,-526 65,-526 65,-526 59,-526 53,-520 53,-514 53,-514 53,-413 53,-413 53,-407 59,-401 65,-401"/>
<text text-anchor="middle" x="238" y="-513.2" font-family="Times,serif" font-size="11.00" fill="gray">Resources</text>
</g>
<g id="clust4" class="cluster"><title>cluster_\EventsForce\Exceptions</title>
<path fill="none" stroke="gray" d="M294,-214C294,-214 460,-214 460,-214 466,-214 472,-220 472,-226 472,-226 472,-381 472,-381 472,-387 466,-393 460,-393 460,-393 294,-393 294,-393 288,-393 282,-387 282,-381 282,-381 282,-226 282,-226 282,-220 288,-214 294,-214"/>
<text text-anchor="middle" x="377" y="-380.2" font-family="Times,serif" font-size="11.00" fill="gray">Exceptions</text>
</g>
<!-- \\EventsForce\\Resources\\BaseResource -->
<g id="node1" class="node"><title>\\EventsForce\\Resources\\BaseResource</title>
<polygon fill="none" stroke="black" points="156.713,-472 61.2869,-472 61.2869,-436 156.713,-436 156.713,-472"/>
<text text-anchor="start" x="75.9946" y="-456.2" font-family="Courier,monospace" font-size="11.00">«abstract»</text>
<text text-anchor="start" x="69.3936" y="-445.2" font-family="Courier,monospace" font-size="11.00">BaseResource</text>
</g>
<!-- \\EventsForce\\Resources\\Attendees -->
<g id="node2" class="node"><title>\\EventsForce\\Resources\\Attendees</title>
<polygon fill="none" stroke="black" points="414.911,-499 339.089,-499 339.089,-463 414.911,-463 414.911,-499"/>
<text text-anchor="middle" x="377" y="-477.7" font-family="Courier,monospace" font-size="11.00">Attendees</text>
</g>
<!-- \\EventsForce\\Resources\\Attendees&#45;&gt;\\EventsForce\\Resources\\BaseResource -->
<g id="edge1" class="edge"><title>\\EventsForce\\Resources\\Attendees&#45;&gt;\\EventsForce\\Resources\\BaseResource</title>
<path fill="none" stroke="black" d="M339.293,-477.274C294.666,-472.744 218.864,-465.05 166.71,-459.756"/>
<polygon fill="none" stroke="black" points="166.913,-456.259 156.611,-458.731 166.206,-463.223 166.913,-456.259"/>
</g>
<!-- \\EventsForce\\Resources\\Events -->
<g id="node3" class="node"><title>\\EventsForce\\Resources\\Events</title>
<polygon fill="none" stroke="black" points="404.608,-445 349.392,-445 349.392,-409 404.608,-409 404.608,-445"/>
<text text-anchor="middle" x="377" y="-423.7" font-family="Courier,monospace" font-size="11.00">Events</text>
</g>
<!-- \\EventsForce\\Resources\\Events&#45;&gt;\\EventsForce\\Resources\\BaseResource -->
<g id="edge5" class="edge"><title>\\EventsForce\\Resources\\Events&#45;&gt;\\EventsForce\\Resources\\BaseResource</title>
<path fill="none" stroke="black" d="M349.031,-429.737C306.506,-434.054 222.944,-442.536 166.771,-448.238"/>
<polygon fill="none" stroke="black" points="166.212,-444.776 156.617,-449.268 166.919,-451.74 166.212,-444.776"/>
</g>
<!-- \\EventsForce\\Exceptions\\EmptyResponseException -->
<g id="node4" class="node"><title>\\EventsForce\\Exceptions\\EmptyResponseException</title>
<polygon fill="none" stroke="black" points="457.724,-312 296.276,-312 296.276,-276 457.724,-276 457.724,-312"/>
<text text-anchor="middle" x="377" y="-290.7" font-family="Courier,monospace" font-size="11.00">EmptyResponseException</text>
</g>
<!-- \\Exception -->
<g id="node9" class="node"><title>\\Exception</title>
<ellipse fill="none" stroke="black" cx="109" cy="-72" rx="40.6162" ry="18"/>
<text text-anchor="middle" x="109" y="-67.8" font-family="Times,serif" font-size="14.00" fill="gray">xception</text>
</g>
<!-- \\EventsForce\\Exceptions\\EmptyResponseException&#45;&gt;\\Exception -->
<g id="edge2" class="edge"><title>\\EventsForce\\Exceptions\\EmptyResponseException&#45;&gt;\\Exception</title>
<path fill="none" stroke="black" d="M298.981,-275.9C293.048,-273.309 287.31,-270.358 282,-267 211.263,-222.272 152.773,-140.056 125.891,-98.109"/>
<polygon fill="none" stroke="black" points="128.789,-96.144 120.492,-89.5565 122.87,-99.8808 128.789,-96.144"/>
</g>
<!-- \\EventsForce\\Exceptions\\InvalidArgumentException -->
<g id="node5" class="node"><title>\\EventsForce\\Exceptions\\InvalidArgumentException</title>
<polygon fill="none" stroke="black" points="464.426,-258 289.574,-258 289.574,-222 464.426,-222 464.426,-258"/>
<text text-anchor="middle" x="377" y="-236.7" font-family="Courier,monospace" font-size="11.00">InvalidArgumentException</text>
</g>
<!-- \\InvalidArgumentException -->
<g id="node10" class="node"><title>\\InvalidArgumentException</title>
<ellipse fill="none" stroke="black" cx="109" cy="-18" rx="109.337" ry="18"/>
<text text-anchor="middle" x="109" y="-13.8" font-family="Times,serif" font-size="14.00" fill="gray">\InvalidArgumentException</text>
</g>
<!-- \\EventsForce\\Exceptions\\InvalidArgumentException&#45;&gt;\\InvalidArgumentException -->
<g id="edge3" class="edge"><title>\\EventsForce\\Exceptions\\InvalidArgumentException&#45;&gt;\\InvalidArgumentException</title>
<path fill="none" stroke="black" d="M289.615,-223.764C286.938,-222.023 284.387,-220.107 282,-218 220.538,-163.746 279.051,-99.7152 218,-45 213.183,-40.6829 207.779,-37.033 202.025,-33.9499"/>
<polygon fill="none" stroke="black" points="203.265,-30.6646 192.728,-29.5568 200.274,-36.9936 203.265,-30.6646"/>
</g>
<!-- \\EventsForce\\Exceptions\\EventsForceException -->
<g id="node6" class="node"><title>\\EventsForce\\Exceptions\\EventsForceException</title>
<polygon fill="none" stroke="black" points="451.021,-366 302.979,-366 302.979,-330 451.021,-330 451.021,-366"/>
<text text-anchor="middle" x="377" y="-344.7" font-family="Courier,monospace" font-size="11.00">EventsForceException</text>
</g>
<!-- \\EventsForce\\Exceptions\\EventsForceException&#45;&gt;\\Exception -->
<g id="edge4" class="edge"><title>\\EventsForce\\Exceptions\\EventsForceException&#45;&gt;\\Exception</title>
<path fill="none" stroke="black" d="M302.82,-332.502C295.442,-329.348 288.343,-325.557 282,-321 199.795,-261.94 143.906,-150.751 121.282,-99.3428"/>
<polygon fill="none" stroke="black" points="124.379,-97.6857 117.202,-89.8913 117.952,-100.46 124.379,-97.6857"/>
</g>
<!-- \\EventsForce\\Request -->
<g id="node7" class="node"><title>\\EventsForce\\Request</title>
<polygon fill="none" stroke="black" points="408.208,-204 345.792,-204 345.792,-168 408.208,-168 408.208,-204"/>
<text text-anchor="middle" x="377" y="-182.7" font-family="Courier,monospace" font-size="11.00">Request</text>
</g>
<!-- \\EventsForce\\Client -->
<g id="node8" class="node"><title>\\EventsForce\\Client</title>
<polygon fill="none" stroke="black" points="404.608,-150 349.392,-150 349.392,-114 404.608,-114 404.608,-150"/>
<text text-anchor="middle" x="377" y="-128.7" font-family="Courier,monospace" font-size="11.00">Client</text>
</g>
</g>
</svg>
