<?xml version="1.0" encoding="UTF-8" standalone="no"?>
<!DOCTYPE svg PUBLIC "-//W3C//DTD SVG 1.1//EN"
 "http://www.w3.org/Graphics/SVG/1.1/DTD/svg11.dtd">
<!-- Generated by graphviz version 2.36.0 (20140111.2315)
 -->
<!-- Title: G Pages: 1 -->
<svg width="704pt" height="812pt"
 viewBox="0.00 0.00 704.00 812.00" xmlns="http://www.w3.org/2000/svg" xmlns:xlink="http://www.w3.org/1999/xlink">
<g id="graph0" class="graph" transform="scale(1 1) rotate(0) translate(4 808)">
<title>G</title>
<polygon fill="white" stroke="none" points="-4,4 -4,-808 700,-808 700,4 -4,4"/>
<g id="clust1" class="cluster"><title>cluster_Global</title>
<path fill="none" stroke="gray" d="M20,-98C20,-98 676,-98 676,-98 682,-98 688,-104 688,-110 688,-110 688,-784 688,-784 688,-790 682,-796 676,-796 676,-796 20,-796 20,-796 14,-796 8,-790 8,-784 8,-784 8,-110 8,-110 8,-104 14,-98 20,-98"/>
<text text-anchor="middle" x="348" y="-783.2" font-family="Times,serif" font-size="11.00" fill="gray">Global</text>
</g>
<g id="clust2" class="cluster"><title>cluster_\EventsForce</title>
<path fill="none" stroke="gray" d="M28,-106C28,-106 668,-106 668,-106 674,-106 680,-112 680,-118 680,-118 680,-757 680,-757 680,-763 674,-769 668,-769 668,-769 28,-769 28,-769 22,-769 16,-763 16,-757 16,-757 16,-118 16,-118 16,-112 22,-106 28,-106"/>
<text text-anchor="middle" x="348" y="-756.2" font-family="Times,serif" font-size="11.00" fill="gray">EventsForce</text>
</g>
<g id="clust3" class="cluster"><title>cluster_\EventsForce\Resources</title>
<path fill="none" stroke="gray" d="M36,-455C36,-455 611,-455 611,-455 617,-455 623,-461 623,-467 623,-467 623,-730 623,-730 623,-736 617,-742 611,-742 611,-742 36,-742 36,-742 30,-742 24,-736 24,-730 24,-730 24,-467 24,-467 24,-461 30,-455 36,-455"/>
<text text-anchor="middle" x="323.5" y="-729.2" font-family="Times,serif" font-size="11.00" fill="gray">Resources</text>
</g>
<g id="clust4" class="cluster"><title>cluster_\EventsForce\Exceptions</title>
<path fill="none" stroke="gray" d="M494,-214C494,-214 660,-214 660,-214 666,-214 672,-220 672,-226 672,-226 672,-435 672,-435 672,-441 666,-447 660,-447 660,-447 494,-447 494,-447 488,-447 482,-441 482,-435 482,-435 482,-226 482,-226 482,-220 488,-214 494,-214"/>
<text text-anchor="middle" x="577" y="-434.2" font-family="Times,serif" font-size="11.00" fill="gray">Exceptions</text>
</g>
<!-- \\EventsForce\\Resources\\BaseResource -->
<g id="node1" class="node"><title>\\EventsForce\\Resources\\BaseResource</title>
<polygon fill="none" stroke="black" points="127.713,-607 32.2869,-607 32.2869,-571 127.713,-571 127.713,-607"/>
<text text-anchor="start" x="46.9946" y="-591.2" font-family="Courier,monospace" font-size="11.00">«abstract»</text>
<text text-anchor="start" x="40.3936" y="-580.2" font-family="Courier,monospace" font-size="11.00">BaseResource</text>
</g>
<!-- \\EventsForce\\Resources\\Attendees -->
<g id="node2" class="node"><title>\\EventsForce\\Resources\\Attendees</title>
<polygon fill="none" stroke="black" points="614.911,-715 539.089,-715 539.089,-679 614.911,-679 614.911,-715"/>
<text text-anchor="middle" x="577" y="-693.7" font-family="Courier,monospace" font-size="11.00">Attendees</text>
</g>
<!-- \\EventsForce\\Resources\\EventBasedResource -->
<g id="node7" class="node"><title>\\EventsForce\\Resources\\EventBasedResource</title>
<polygon fill="none" stroke="black" points="376.319,-661 241.681,-661 241.681,-625 376.319,-625 376.319,-661"/>
<text text-anchor="start" x="275.995" y="-645.2" font-family="Courier,monospace" font-size="11.00">«abstract»</text>
<text text-anchor="start" x="249.59" y="-634.2" font-family="Courier,monospace" font-size="11.00">EventBasedResource</text>
</g>
<!-- \\EventsForce\\Resources\\Attendees&#45;&gt;\\EventsForce\\Resources\\EventBasedResource -->
<g id="edge1" class="edge"><title>\\EventsForce\\Resources\\Attendees&#45;&gt;\\EventsForce\\Resources\\EventBasedResource</title>
<path fill="none" stroke="black" d="M539.293,-689.548C500.011,-681.574 436.573,-668.695 386.371,-658.504"/>
<polygon fill="none" stroke="black" points="387.015,-655.063 376.519,-656.504 385.622,-661.923 387.015,-655.063"/>
</g>
<!-- \\EventsForce\\Resources\\InvoiceBasedResource -->
<g id="node3" class="node"><title>\\EventsForce\\Resources\\InvoiceBasedResource</title>
<polygon fill="none" stroke="black" points="383.021,-607 234.979,-607 234.979,-571 383.021,-571 383.021,-607"/>
<text text-anchor="start" x="275.995" y="-591.2" font-family="Courier,monospace" font-size="11.00">«abstract»</text>
<text text-anchor="start" x="242.989" y="-580.2" font-family="Courier,monospace" font-size="11.00">InvoiceBasedResource</text>
</g>
<!-- \\EventsForce\\Resources\\InvoiceBasedResource&#45;&gt;\\EventsForce\\Resources\\BaseResource -->
<g id="edge4" class="edge"><title>\\EventsForce\\Resources\\InvoiceBasedResource&#45;&gt;\\EventsForce\\Resources\\BaseResource</title>
<path fill="none" stroke="black" d="M234.926,-589C203.507,-589 167.333,-589 137.951,-589"/>
<polygon fill="none" stroke="black" points="137.86,-585.5 127.86,-589 137.86,-592.5 137.86,-585.5"/>
</g>
<!-- \\EventsForce\\Resources\\Invoices -->
<g id="node4" class="node"><title>\\EventsForce\\Resources\\Invoices</title>
<polygon fill="none" stroke="black" points="343.309,-715 274.691,-715 274.691,-679 343.309,-679 343.309,-715"/>
<text text-anchor="middle" x="309" y="-693.7" font-family="Courier,monospace" font-size="11.00">Invoices</text>
</g>
<!-- \\EventsForce\\Resources\\Invoices&#45;&gt;\\EventsForce\\Resources\\BaseResource -->
<g id="edge5" class="edge"><title>\\EventsForce\\Resources\\Invoices&#45;&gt;\\EventsForce\\Resources\\BaseResource</title>
<path fill="none" stroke="black" d="M274.383,-691.758C252.542,-687.595 223.81,-680.67 200,-670 167.095,-655.254 133.481,-631.4 110.409,-613.389"/>
<polygon fill="none" stroke="black" points="112.417,-610.515 102.407,-607.046 108.069,-616.001 112.417,-610.515"/>
</g>
<!-- \\EventsForce\\Resources\\Sessions -->
<g id="node5" class="node"><title>\\EventsForce\\Resources\\Sessions</title>
<polygon fill="none" stroke="black" points="611.309,-661 542.691,-661 542.691,-625 611.309,-625 611.309,-661"/>
<text text-anchor="middle" x="577" y="-639.7" font-family="Courier,monospace" font-size="11.00">Sessions</text>
</g>
<!-- \\EventsForce\\Resources\\Sessions&#45;&gt;\\EventsForce\\Resources\\EventBasedResource -->
<g id="edge8" class="edge"><title>\\EventsForce\\Resources\\Sessions&#45;&gt;\\EventsForce\\Resources\\EventBasedResource</title>
<path fill="none" stroke="black" d="M542.58,-643C503.663,-643 438.129,-643 386.525,-643"/>
<polygon fill="none" stroke="black" points="386.402,-639.5 376.402,-643 386.402,-646.5 386.402,-639.5"/>
</g>
<!-- \\EventsForce\\Resources\\Payments -->
<g id="node6" class="node"><title>\\EventsForce\\Resources\\Payments</title>
<polygon fill="none" stroke="black" points="611.309,-607 542.691,-607 542.691,-571 611.309,-571 611.309,-607"/>
<text text-anchor="middle" x="577" y="-585.7" font-family="Courier,monospace" font-size="11.00">Payments</text>
</g>
<!-- \\EventsForce\\Resources\\Payments&#45;&gt;\\EventsForce\\Resources\\InvoiceBasedResource -->
<g id="edge9" class="edge"><title>\\EventsForce\\Resources\\Payments&#45;&gt;\\EventsForce\\Resources\\InvoiceBasedResource</title>
<path fill="none" stroke="black" d="M542.58,-589C505.376,-589 443.846,-589 393.417,-589"/>
<polygon fill="none" stroke="black" points="393.163,-585.5 383.163,-589 393.163,-592.5 393.163,-585.5"/>
</g>
<!-- \\EventsForce\\Resources\\EventBasedResource&#45;&gt;\\EventsForce\\Resources\\BaseResource -->
<g id="edge10" class="edge"><title>\\EventsForce\\Resources\\EventBasedResource&#45;&gt;\\EventsForce\\Resources\\BaseResource</title>
<path fill="none" stroke="black" d="M241.426,-627.163C208.491,-619.328 169.158,-609.971 137.681,-602.484"/>
<polygon fill="none" stroke="black" points="138.294,-599.032 127.756,-600.122 136.674,-605.842 138.294,-599.032"/>
</g>
<!-- \\EventsForce\\Resources\\People -->
<g id="node8" class="node"><title>\\EventsForce\\Resources\\People</title>
<polygon fill="none" stroke="black" points="336.608,-553 281.392,-553 281.392,-517 336.608,-517 336.608,-553"/>
<text text-anchor="middle" x="309" y="-531.7" font-family="Courier,monospace" font-size="11.00">People</text>
</g>
<!-- \\EventsForce\\Resources\\People&#45;&gt;\\EventsForce\\Resources\\BaseResource -->
<g id="edge11" class="edge"><title>\\EventsForce\\Resources\\People&#45;&gt;\\EventsForce\\Resources\\BaseResource</title>
<path fill="none" stroke="black" d="M281.069,-541.407C245.947,-549.761 183.597,-564.594 137.809,-575.486"/>
<polygon fill="none" stroke="black" points="136.934,-572.096 128.015,-577.816 138.554,-578.906 136.934,-572.096"/>
</g>
<!-- \\EventsForce\\Resources\\Events -->
<g id="node9" class="node"><title>\\EventsForce\\Resources\\Events</title>
<polygon fill="none" stroke="black" points="336.608,-499 281.392,-499 281.392,-463 336.608,-463 336.608,-499"/>
<text text-anchor="middle" x="309" y="-477.7" font-family="Courier,monospace" font-size="11.00">Events</text>
</g>
<!-- \\EventsForce\\Resources\\Events&#45;&gt;\\EventsForce\\Resources\\BaseResource -->
<g id="edge12" class="edge"><title>\\EventsForce\\Resources\\Events&#45;&gt;\\EventsForce\\Resources\\BaseResource</title>
<path fill="none" stroke="black" d="M281.392,-484.956C258.987,-488.912 226.456,-496.144 200,-508 167.095,-522.746 133.481,-546.6 110.409,-564.611"/>
<polygon fill="none" stroke="black" points="108.069,-561.999 102.407,-570.954 112.417,-567.485 108.069,-561.999"/>
</g>
<!-- \\EventsForce\\Exceptions\\ResourceNotFound -->
<g id="node10" class="node"><title>\\EventsForce\\Exceptions\\ResourceNotFound</title>
<polygon fill="none" stroke="black" points="637.618,-366 516.382,-366 516.382,-330 637.618,-330 637.618,-366"/>
<text text-anchor="middle" x="577" y="-344.7" font-family="Courier,monospace" font-size="11.00">ResourceNotFound</text>
</g>
<!-- \\Exception -->
<g id="node16" class="node"><title>\\Exception</title>
<ellipse fill="none" stroke="black" cx="309" cy="-72" rx="40.6162" ry="18"/>
<text text-anchor="middle" x="309" y="-67.8" font-family="Times,serif" font-size="14.00" fill="gray">xception</text>
</g>
<!-- \\EventsForce\\Exceptions\\ResourceNotFound&#45;&gt;\\Exception -->
<g id="edge2" class="edge"><title>\\EventsForce\\Exceptions\\ResourceNotFound&#45;&gt;\\Exception</title>
<path fill="none" stroke="black" d="M516.003,-337.421C504.035,-333.535 492.066,-328.232 482,-321 399.795,-261.94 343.906,-150.751 321.282,-99.3428"/>
<polygon fill="none" stroke="black" points="324.379,-97.6857 317.202,-89.8913 317.952,-100.46 324.379,-97.6857"/>
</g>
<!-- \\EventsForce\\Exceptions\\EmptyResponseException -->
<g id="node11" class="node"><title>\\EventsForce\\Exceptions\\EmptyResponseException</title>
<polygon fill="none" stroke="black" points="657.724,-312 496.276,-312 496.276,-276 657.724,-276 657.724,-312"/>
<text text-anchor="middle" x="577" y="-290.7" font-family="Courier,monospace" font-size="11.00">EmptyResponseException</text>
</g>
<!-- \\EventsForce\\Exceptions\\EmptyResponseException&#45;&gt;\\Exception -->
<g id="edge3" class="edge"><title>\\EventsForce\\Exceptions\\EmptyResponseException&#45;&gt;\\Exception</title>
<path fill="none" stroke="black" d="M498.981,-275.9C493.048,-273.309 487.31,-270.358 482,-267 411.263,-222.272 352.773,-140.056 325.891,-98.109"/>
<polygon fill="none" stroke="black" points="328.789,-96.144 320.492,-89.5565 322.87,-99.8808 328.789,-96.144"/>
</g>
<!-- \\EventsForce\\Exceptions\\InvalidArgumentException -->
<g id="node12" class="node"><title>\\EventsForce\\Exceptions\\InvalidArgumentException</title>
<polygon fill="none" stroke="black" points="664.426,-258 489.574,-258 489.574,-222 664.426,-222 664.426,-258"/>
<text text-anchor="middle" x="577" y="-236.7" font-family="Courier,monospace" font-size="11.00">InvalidArgumentException</text>
</g>
<!-- \\InvalidArgumentException -->
<g id="node17" class="node"><title>\\InvalidArgumentException</title>
<ellipse fill="none" stroke="black" cx="309" cy="-18" rx="109.337" ry="18"/>
<text text-anchor="middle" x="309" y="-13.8" font-family="Times,serif" font-size="14.00" fill="gray">\InvalidArgumentException</text>
</g>
<!-- \\EventsForce\\Exceptions\\InvalidArgumentException&#45;&gt;\\InvalidArgumentException -->
<g id="edge6" class="edge"><title>\\EventsForce\\Exceptions\\InvalidArgumentException&#45;&gt;\\InvalidArgumentException</title>
<path fill="none" stroke="black" d="M489.615,-223.764C486.938,-222.023 484.387,-220.107 482,-218 420.538,-163.746 479.051,-99.7152 418,-45 413.183,-40.6829 407.779,-37.033 402.025,-33.9499"/>
<polygon fill="none" stroke="black" points="403.265,-30.6646 392.728,-29.5568 400.274,-36.9936 403.265,-30.6646"/>
</g>
<!-- \\EventsForce\\Exceptions\\Exception -->
<g id="node13" class="node"><title>\\EventsForce\\Exceptions\\Exception</title>
<polygon fill="none" stroke="black" points="614.911,-420 539.089,-420 539.089,-384 614.911,-384 614.911,-420"/>
<text text-anchor="middle" x="577" y="-398.7" font-family="Courier,monospace" font-size="11.00">Exception</text>
</g>
<!-- \\EventsForce\\Exceptions\\Exception&#45;&gt;\\Exception -->
<g id="edge7" class="edge"><title>\\EventsForce\\Exceptions\\Exception&#45;&gt;\\Exception</title>
<path fill="none" stroke="black" d="M539.074,-398.086C520.385,-394.549 498.274,-387.816 482,-375 387.634,-300.682 336.174,-159.345 317.836,-99.6786"/>
<polygon fill="none" stroke="black" points="321.113,-98.4206 314.889,-89.8466 314.408,-100.431 321.113,-98.4206"/>
</g>
<!-- \\EventsForce\\Request -->
<g id="node14" class="node"><title>\\EventsForce\\Request</title>
<polygon fill="none" stroke="black" points="608.208,-204 545.792,-204 545.792,-168 608.208,-168 608.208,-204"/>
<text text-anchor="middle" x="577" y="-182.7" font-family="Courier,monospace" font-size="11.00">Request</text>
</g>
<!-- \\EventsForce\\Client -->
<g id="node15" class="node"><title>\\EventsForce\\Client</title>
<polygon fill="none" stroke="black" points="604.608,-150 549.392,-150 549.392,-114 604.608,-114 604.608,-150"/>
<text text-anchor="middle" x="577" y="-128.7" font-family="Courier,monospace" font-size="11.00">Client</text>
</g>
</g>
</svg>
