<?xml version="1.0" encoding="UTF-8" standalone="no"?>
<!DOCTYPE svg PUBLIC "-//W3C//DTD SVG 1.1//EN"
 "http://www.w3.org/Graphics/SVG/1.1/DTD/svg11.dtd">
<!-- Generated by graphviz version 2.36.0 (20140111.2315)
 -->
<!-- Title: G Pages: 1 -->
<svg width="504pt" height="488pt"
 viewBox="0.00 0.00 504.00 488.00" xmlns="http://www.w3.org/2000/svg" xmlns:xlink="http://www.w3.org/1999/xlink">
<g id="graph0" class="graph" transform="scale(1 1) rotate(0) translate(4 484)">
<title>G</title>
<polygon fill="white" stroke="none" points="-4,4 -4,-484 500,-484 500,4 -4,4"/>
<g id="clust1" class="cluster"><title>cluster_Global</title>
<path fill="none" stroke="gray" d="M56,-98C56,-98 476,-98 476,-98 482,-98 488,-104 488,-110 488,-110 488,-460 488,-460 488,-466 482,-472 476,-472 476,-472 56,-472 56,-472 50,-472 44,-466 44,-460 44,-460 44,-110 44,-110 44,-104 50,-98 56,-98"/>
<text text-anchor="middle" x="266" y="-459.2" font-family="Times,serif" font-size="11.00" fill="gray">Global</text>
</g>
<g id="clust2" class="cluster"><title>cluster_\EventsForce</title>
<path fill="none" stroke="gray" d="M64,-106C64,-106 468,-106 468,-106 474,-106 480,-112 480,-118 480,-118 480,-433 480,-433 480,-439 474,-445 468,-445 468,-445 64,-445 64,-445 58,-445 52,-439 52,-433 52,-433 52,-118 52,-118 52,-112 58,-106 64,-106"/>
<text text-anchor="middle" x="266" y="-432.2" font-family="Times,serif" font-size="11.00" fill="gray">EventsForce</text>
</g>
<g id="clust3" class="cluster"><title>cluster_\EventsForce\Exceptions</title>
<path fill="none" stroke="gray" d="M294,-214C294,-214 460,-214 460,-214 466,-214 472,-220 472,-226 472,-226 472,-327 472,-327 472,-333 466,-339 460,-339 460,-339 294,-339 294,-339 288,-339 282,-333 282,-327 282,-327 282,-226 282,-226 282,-220 288,-214 294,-214"/>
<text text-anchor="middle" x="377" y="-326.2" font-family="Times,serif" font-size="11.00" fill="gray">Exceptions</text>
</g>
<g id="clust4" class="cluster"><title>cluster_\EventsForce\Resources</title>
<path fill="none" stroke="gray" d="M72,-347C72,-347 401,-347 401,-347 407,-347 413,-353 413,-359 413,-359 413,-406 413,-406 413,-412 407,-418 401,-418 401,-418 72,-418 72,-418 66,-418 60,-412 60,-406 60,-406 60,-359 60,-359 60,-353 66,-347 72,-347"/>
<text text-anchor="middle" x="236.5" y="-405.2" font-family="Times,serif" font-size="11.00" fill="gray">Resources</text>
</g>
<!-- \\EventsForce\\Exceptions\\InvalidArgumentException -->
<g id="node1" class="node"><title>\\EventsForce\\Exceptions\\InvalidArgumentException</title>
<polygon fill="none" stroke="black" points="464.426,-312 289.574,-312 289.574,-276 464.426,-276 464.426,-312"/>
<text text-anchor="middle" x="377" y="-290.7" font-family="Courier,monospace" font-size="11.00">InvalidArgumentException</text>
</g>
<!-- \\InvalidArgumentException -->
<g id="node7" class="node"><title>\\InvalidArgumentException</title>
<ellipse fill="none" stroke="black" cx="109" cy="-72" rx="109.337" ry="18"/>
<text text-anchor="middle" x="109" y="-67.8" font-family="Times,serif" font-size="14.00" fill="gray">\InvalidArgumentException</text>
</g>
<!-- \\EventsForce\\Exceptions\\InvalidArgumentException&#45;&gt;\\InvalidArgumentException -->
<g id="edge1" class="edge"><title>\\EventsForce\\Exceptions\\InvalidArgumentException&#45;&gt;\\InvalidArgumentException</title>
<path fill="none" stroke="black" d="M298.981,-275.9C293.048,-273.309 287.31,-270.358 282,-267 211.619,-222.497 153.361,-140.882 126.298,-98.7444"/>
<polygon fill="none" stroke="black" points="129.157,-96.7162 120.853,-90.1368 123.242,-100.459 129.157,-96.7162"/>
</g>
<!-- \\EventsForce\\Exceptions\\EventsForceException -->
<g id="node2" class="node"><title>\\EventsForce\\Exceptions\\EventsForceException</title>
<polygon fill="none" stroke="black" points="451.021,-258 302.979,-258 302.979,-222 451.021,-222 451.021,-258"/>
<text text-anchor="middle" x="377" y="-236.7" font-family="Courier,monospace" font-size="11.00">EventsForceException</text>
</g>
<!-- \\Exception -->
<g id="node8" class="node"><title>\\Exception</title>
<ellipse fill="none" stroke="black" cx="109" cy="-18" rx="40.6162" ry="18"/>
<text text-anchor="middle" x="109" y="-13.8" font-family="Times,serif" font-size="14.00" fill="gray">xception</text>
</g>
<!-- \\EventsForce\\Exceptions\\EventsForceException&#45;&gt;\\Exception -->
<g id="edge2" class="edge"><title>\\EventsForce\\Exceptions\\EventsForceException&#45;&gt;\\Exception</title>
<path fill="none" stroke="black" d="M302.62,-230.574C295.106,-227.425 288.031,-223.324 282,-218 220.538,-163.746 279.051,-99.7152 218,-45 202.117,-30.7652 179.858,-23.7857 159.672,-20.4514"/>
<polygon fill="none" stroke="black" points="160.046,-16.9698 149.659,-19.0562 159.08,-23.9029 160.046,-16.9698"/>
</g>
<!-- \\EventsForce\\Resources\\Base -->
<g id="node3" class="node"><title>\\EventsForce\\Resources\\Base</title>
<polygon fill="none" stroke="black" points="150.011,-391 67.9893,-391 67.9893,-355 150.011,-355 150.011,-391"/>
<text text-anchor="start" x="75.9946" y="-375.2" font-family="Courier,monospace" font-size="11.00">«abstract»</text>
<text text-anchor="start" x="95.7979" y="-364.2" font-family="Courier,monospace" font-size="11.00">Base</text>
</g>
<!-- \\EventsForce\\Resources\\Events -->
<g id="node4" class="node"><title>\\EventsForce\\Resources\\Events</title>
<polygon fill="none" stroke="black" points="404.608,-391 349.392,-391 349.392,-355 404.608,-355 404.608,-391"/>
<text text-anchor="middle" x="377" y="-369.7" font-family="Courier,monospace" font-size="11.00">Events</text>
</g>
<!-- \\EventsForce\\Resources\\Events&#45;&gt;\\EventsForce\\Resources\\Base -->
<g id="edge3" class="edge"><title>\\EventsForce\\Resources\\Events&#45;&gt;\\EventsForce\\Resources\\Base</title>
<path fill="none" stroke="black" d="M349.031,-373C304.89,-373 216.532,-373 160.487,-373"/>
<polygon fill="none" stroke="black" points="160.417,-369.5 150.417,-373 160.417,-376.5 160.417,-369.5"/>
</g>
<!-- \\EventsForce\\Client -->
<g id="node5" class="node"><title>\\EventsForce\\Client</title>
<polygon fill="none" stroke="black" points="404.608,-204 349.392,-204 349.392,-168 404.608,-168 404.608,-204"/>
<text text-anchor="middle" x="377" y="-182.7" font-family="Courier,monospace" font-size="11.00">Client</text>
</g>
<!-- \\EventsForce\\Request -->
<g id="node6" class="node"><title>\\EventsForce\\Request</title>
<polygon fill="none" stroke="black" points="408.208,-150 345.792,-150 345.792,-114 408.208,-114 408.208,-150"/>
<text text-anchor="middle" x="377" y="-128.7" font-family="Courier,monospace" font-size="11.00">Request</text>
</g>
</g>
</svg>
