<?xml version="1.0" encoding="UTF-8" standalone="no"?>
<!DOCTYPE svg PUBLIC "-//W3C//DTD SVG 1.1//EN"
 "http://www.w3.org/Graphics/SVG/1.1/DTD/svg11.dtd">
<!-- Generated by graphviz version 2.36.0 (20140111.2315)
 -->
<!-- Title: G Pages: 1 -->
<svg width="504pt" height="542pt"
 viewBox="0.00 0.00 504.00 542.00" xmlns="http://www.w3.org/2000/svg" xmlns:xlink="http://www.w3.org/1999/xlink">
<g id="graph0" class="graph" transform="scale(1 1) rotate(0) translate(4 538)">
<title>G</title>
<polygon fill="white" stroke="none" points="-4,4 -4,-538 500,-538 500,4 -4,4"/>
<g id="clust1" class="cluster"><title>cluster_Global</title>
<path fill="none" stroke="gray" d="M56,-98C56,-98 476,-98 476,-98 482,-98 488,-104 488,-110 488,-110 488,-514 488,-514 488,-520 482,-526 476,-526 476,-526 56,-526 56,-526 50,-526 44,-520 44,-514 44,-514 44,-110 44,-110 44,-104 50,-98 56,-98"/>
<text text-anchor="middle" x="266" y="-513.2" font-family="Times,serif" font-size="11.00" fill="gray">Global</text>
</g>
<g id="clust2" class="cluster"><title>cluster_\EventsForce</title>
<path fill="none" stroke="gray" d="M64,-106C64,-106 468,-106 468,-106 474,-106 480,-112 480,-118 480,-118 480,-487 480,-487 480,-493 474,-499 468,-499 468,-499 64,-499 64,-499 58,-499 52,-493 52,-487 52,-487 52,-118 52,-118 52,-112 58,-106 64,-106"/>
<text text-anchor="middle" x="266" y="-486.2" font-family="Times,serif" font-size="11.00" fill="gray">EventsForce</text>
</g>
<g id="clust3" class="cluster"><title>cluster_\EventsForce\Resources</title>
<path fill="none" stroke="gray" d="M72,-401C72,-401 401,-401 401,-401 407,-401 413,-407 413,-413 413,-413 413,-460 413,-460 413,-466 407,-472 401,-472 401,-472 72,-472 72,-472 66,-472 60,-466 60,-460 60,-460 60,-413 60,-413 60,-407 66,-401 72,-401"/>
<text text-anchor="middle" x="236.5" y="-459.2" font-family="Times,serif" font-size="11.00" fill="gray">Resources</text>
</g>
<g id="clust4" class="cluster"><title>cluster_\EventsForce\Exceptions</title>
<path fill="none" stroke="gray" d="M294,-214C294,-214 460,-214 460,-214 466,-214 472,-220 472,-226 472,-226 472,-381 472,-381 472,-387 466,-393 460,-393 460,-393 294,-393 294,-393 288,-393 282,-387 282,-381 282,-381 282,-226 282,-226 282,-220 288,-214 294,-214"/>
<text text-anchor="middle" x="377" y="-380.2" font-family="Times,serif" font-size="11.00" fill="gray">Exceptions</text>
</g>
<!-- \\EventsForce\\Resources\\Base -->
<g id="node1" class="node"><title>\\EventsForce\\Resources\\Base</title>
<polygon fill="none" stroke="black" points="150.011,-445 67.9893,-445 67.9893,-409 150.011,-409 150.011,-445"/>
<text text-anchor="start" x="75.9946" y="-429.2" font-family="Courier,monospace" font-size="11.00">«abstract»</text>
<text text-anchor="start" x="95.7979" y="-418.2" font-family="Courier,monospace" font-size="11.00">Base</text>
</g>
<!-- \\EventsForce\\Resources\\Events -->
<g id="node2" class="node"><title>\\EventsForce\\Resources\\Events</title>
<polygon fill="none" stroke="black" points="404.608,-445 349.392,-445 349.392,-409 404.608,-409 404.608,-445"/>
<text text-anchor="middle" x="377" y="-423.7" font-family="Courier,monospace" font-size="11.00">Events</text>
</g>
<!-- \\EventsForce\\Resources\\Events&#45;&gt;\\EventsForce\\Resources\\Base -->
<g id="edge4" class="edge"><title>\\EventsForce\\Resources\\Events&#45;&gt;\\EventsForce\\Resources\\Base</title>
<path fill="none" stroke="black" d="M349.031,-427C304.89,-427 216.532,-427 160.487,-427"/>
<polygon fill="none" stroke="black" points="160.417,-423.5 150.417,-427 160.417,-430.5 160.417,-423.5"/>
</g>
<!-- \\EventsForce\\Exceptions\\EmptyResponseException -->
<g id="node3" class="node"><title>\\EventsForce\\Exceptions\\EmptyResponseException</title>
<polygon fill="none" stroke="black" points="457.724,-312 296.276,-312 296.276,-276 457.724,-276 457.724,-312"/>
<text text-anchor="middle" x="377" y="-290.7" font-family="Courier,monospace" font-size="11.00">EmptyResponseException</text>
</g>
<!-- \\Exception -->
<g id="node8" class="node"><title>\\Exception</title>
<ellipse fill="none" stroke="black" cx="109" cy="-72" rx="40.6162" ry="18"/>
<text text-anchor="middle" x="109" y="-67.8" font-family="Times,serif" font-size="14.00" fill="gray">xception</text>
</g>
<!-- \\EventsForce\\Exceptions\\EmptyResponseException&#45;&gt;\\Exception -->
<g id="edge1" class="edge"><title>\\EventsForce\\Exceptions\\EmptyResponseException&#45;&gt;\\Exception</title>
<path fill="none" stroke="black" d="M298.981,-275.9C293.048,-273.309 287.31,-270.358 282,-267 211.263,-222.272 152.773,-140.056 125.891,-98.109"/>
<polygon fill="none" stroke="black" points="128.789,-96.144 120.492,-89.5565 122.87,-99.8808 128.789,-96.144"/>
</g>
<!-- \\EventsForce\\Exceptions\\InvalidArgumentException -->
<g id="node4" class="node"><title>\\EventsForce\\Exceptions\\InvalidArgumentException</title>
<polygon fill="none" stroke="black" points="464.426,-258 289.574,-258 289.574,-222 464.426,-222 464.426,-258"/>
<text text-anchor="middle" x="377" y="-236.7" font-family="Courier,monospace" font-size="11.00">InvalidArgumentException</text>
</g>
<!-- \\InvalidArgumentException -->
<g id="node9" class="node"><title>\\InvalidArgumentException</title>
<ellipse fill="none" stroke="black" cx="109" cy="-18" rx="109.337" ry="18"/>
<text text-anchor="middle" x="109" y="-13.8" font-family="Times,serif" font-size="14.00" fill="gray">\InvalidArgumentException</text>
</g>
<!-- \\EventsForce\\Exceptions\\InvalidArgumentException&#45;&gt;\\InvalidArgumentException -->
<g id="edge2" class="edge"><title>\\EventsForce\\Exceptions\\InvalidArgumentException&#45;&gt;\\InvalidArgumentException</title>
<path fill="none" stroke="black" d="M289.615,-223.764C286.938,-222.023 284.387,-220.107 282,-218 220.538,-163.746 279.051,-99.7152 218,-45 213.183,-40.6829 207.779,-37.033 202.025,-33.9499"/>
<polygon fill="none" stroke="black" points="203.265,-30.6646 192.728,-29.5568 200.274,-36.9936 203.265,-30.6646"/>
</g>
<!-- \\EventsForce\\Exceptions\\EventsForceException -->
<g id="node5" class="node"><title>\\EventsForce\\Exceptions\\EventsForceException</title>
<polygon fill="none" stroke="black" points="451.021,-366 302.979,-366 302.979,-330 451.021,-330 451.021,-366"/>
<text text-anchor="middle" x="377" y="-344.7" font-family="Courier,monospace" font-size="11.00">EventsForceException</text>
</g>
<!-- \\EventsForce\\Exceptions\\EventsForceException&#45;&gt;\\Exception -->
<g id="edge3" class="edge"><title>\\EventsForce\\Exceptions\\EventsForceException&#45;&gt;\\Exception</title>
<path fill="none" stroke="black" d="M302.82,-332.502C295.442,-329.348 288.343,-325.557 282,-321 199.795,-261.94 143.906,-150.751 121.282,-99.3428"/>
<polygon fill="none" stroke="black" points="124.379,-97.6857 117.202,-89.8913 117.952,-100.46 124.379,-97.6857"/>
</g>
<!-- \\EventsForce\\Request -->
<g id="node6" class="node"><title>\\EventsForce\\Request</title>
<polygon fill="none" stroke="black" points="408.208,-204 345.792,-204 345.792,-168 408.208,-168 408.208,-204"/>
<text text-anchor="middle" x="377" y="-182.7" font-family="Courier,monospace" font-size="11.00">Request</text>
</g>
<!-- \\EventsForce\\Client -->
<g id="node7" class="node"><title>\\EventsForce\\Client</title>
<polygon fill="none" stroke="black" points="404.608,-150 349.392,-150 349.392,-114 404.608,-114 404.608,-150"/>
<text text-anchor="middle" x="377" y="-128.7" font-family="Courier,monospace" font-size="11.00">Client</text>
</g>
</g>
</svg>
